<svg width="59" height="64" viewBox="0 0 59 64" fill="none" xmlns="http://www.w3.org/2000/svg">
<path fill-rule="evenodd" clip-rule="evenodd" d="M29.3394 0C13.136 0 0 13.136 0 29.3394V53.5577C0 55.158 0.474764 56.7237 1.36028 58.0546C2.42444 59.6515 4.06913 60.7707 5.94513 61.1746C7.82112 61.5785 9.78067 61.2352 11.4077 60.2177L12.9067 59.2815C13.8253 58.7077 14.8926 58.4168 15.9754 58.4453C17.0582 58.4737 18.1087 58.8202 18.9959 59.4416L22.3753 61.8047C24.4165 63.2336 26.8478 64 29.3394 64C31.831 64 34.2623 63.2336 36.3035 61.8047L39.6828 59.4389C40.5702 58.8179 41.6207 58.4716 42.7034 58.4432C43.7861 58.4147 44.8533 58.7053 45.7721 59.2789L47.2711 60.2177C48.8975 61.2347 50.8562 61.5779 52.7316 61.1745C54.6069 60.7712 56.2513 59.653 57.3158 58.0573C58.204 56.7237 58.6788 55.158 58.6788 53.555V29.3394C58.6788 13.136 45.5427 0 29.3394 0ZM22.6713 28.6752C22.6715 28.0623 22.551 27.4553 22.3165 26.8889C22.0821 26.3225 21.7385 25.8079 21.3052 25.3743C20.8719 24.9408 20.3574 24.5968 19.7912 24.3621C19.2249 24.1274 18.618 24.0065 18.005 24.0063C17.3921 24.0061 16.7851 24.1267 16.2187 24.3611C15.6523 24.5955 15.1377 24.9391 14.7041 25.3725C14.2706 25.8058 13.9266 26.3202 13.6919 26.8865C13.4572 27.4527 13.3363 28.0596 13.3361 28.6726C13.3357 29.9105 13.8272 31.0979 14.7023 31.9735C15.5774 32.8491 16.7644 33.3412 18.0024 33.3415C19.2403 33.3419 20.4277 32.8505 21.3033 31.9754C22.1789 31.1003 22.671 29.9132 22.6713 28.6752ZM37.9892 40.8457C37.5158 40.3203 36.8532 40.0043 36.147 39.9673C35.4407 39.9303 34.7487 40.1753 34.223 40.6484C31.4651 43.1289 28.7152 43.1289 25.9147 41.6166C25.3952 41.3468 24.9061 41.0222 24.4557 40.6484L24.1916 40.4403C23.6344 40.0533 22.9505 39.8932 22.2793 39.9926C21.6082 40.092 21.0001 40.4434 20.5789 40.9754C20.1578 41.5074 19.9552 42.1799 20.0124 42.856C20.0696 43.532 20.3824 44.1609 20.887 44.6145C21.4044 45.0813 22.2472 45.7027 23.3808 46.3135C27.9871 48.8047 33.1428 48.8047 37.7918 44.6145C38.0524 44.3801 38.2642 44.0967 38.4151 43.7803C38.5661 43.464 38.6532 43.1211 38.6716 42.771C38.6899 42.421 38.6391 42.0708 38.522 41.7405C38.4049 41.4101 38.2238 41.1061 37.9892 40.8457ZM45.7934 27.3763C42.9929 24.8665 39.8189 24.8665 37.061 26.3494C36.3942 26.7068 35.8874 27.0776 35.5567 27.3763C35.2962 27.6093 35.0844 27.8916 34.9334 28.2068C34.7824 28.522 34.6952 28.864 34.6769 29.213C34.6585 29.562 34.7094 29.9112 34.8265 30.2405C34.9436 30.5698 35.1247 30.8727 35.3593 31.1317C36.2661 32.1373 37.7758 32.292 38.8613 31.5372L39.1254 31.3291C39.1627 31.2944 39.3388 31.1664 39.5975 31.0277C40.451 30.5663 41.1631 30.521 41.958 31.1077L42.2247 31.3291C43.3183 32.3107 45.0066 32.2226 45.9908 31.1317C46.2254 30.8727 46.4065 30.5698 46.5236 30.2405C46.6407 29.9112 46.6915 29.562 46.6732 29.213C46.6549 28.864 46.5677 28.522 46.4167 28.2068C46.2657 27.8916 46.0539 27.6093 45.7934 27.3763Z" fill="#4B90E5"/>
</svg>
